<?xml version="1.0" encoding="UTF-8"?>
<svg version="1.1" xmlns="http://www.w3.org/2000/svg" width="1000" height="1080">
<path d="M0 0 C0.91180023 -0.00067474 1.82360046 -0.00134949 2.76303101 -0.00204468 C30.64457664 0.03037819 57.82905448 2.7256985 85.1875 8.25 C86.27933594 8.47026855 87.37117188 8.69053711 88.49609375 8.91748047 C139.4221808 19.44047295 189.18457519 39.86426742 232.1875 69.25 C233.17991699 69.92796631 233.17991699 69.92796631 234.19238281 70.61962891 C243.59638859 77.08245527 252.73576715 83.82448232 261.61914062 90.98583984 C263.10072843 92.18005866 264.58922215 93.36569506 266.078125 94.55078125 C272.09430835 99.38951158 277.80403886 104.49105338 283.45703125 109.7421875 C285.63876555 111.74601213 287.84518736 113.67337109 290.125 115.5625 C293.23417739 118.18233955 295.6318589 121.08907548 298.1875 124.25 C300.60802207 126.71475088 303.06751985 129.13359542 305.546875 131.5390625 C310.7063121 136.58047326 315.42403599 141.78775578 319.921875 147.42578125 C322.20535807 150.27226101 324.56588921 153.03924545 326.9375 155.8125 C333.46315681 163.63518177 339.33834729 171.91523878 345.1875 180.25 C345.62030273 180.86149902 346.05310547 181.47299805 346.49902344 182.10302734 C386.26593302 238.58101133 410.76799304 307.51940918 417.1875 376.25 C417.27290039 377.11447754 417.35830078 377.97895508 417.44628906 378.86962891 C420.16442325 410.44967185 420.0054455 443.89655951 415.1875 475.25 C415.04184601 476.22570953 415.04184601 476.22570953 414.89324951 477.22113037 C405.05508271 543.11519341 380.54764264 609.59212361 339.44335938 662.62939453 C338.15295592 664.2945769 336.87988463 665.9719458 335.609375 667.65234375 C328.24625497 677.35655116 320.62263914 686.80726173 312.41015625 695.80859375 C310.9873021 697.37148275 309.57711275 698.94605564 308.18359375 700.53515625 C303.35192741 706.0269364 298.28574494 711.25711889 293.125 716.4375 C292.4642749 717.10281738 291.8035498 717.76813477 291.12280273 718.45361328 C286.64070303 722.92182964 281.9883983 727.12841082 277.1875 731.25 C276.04633916 732.24678272 274.90569043 733.2441521 273.765625 734.2421875 C266.46948644 740.58157949 259.0329166 746.59334093 251.1875 752.25 C250.26227539 752.92216553 250.26227539 752.92216553 249.31835938 753.60791016 C233.9114435 764.77754618 217.95920567 775.061091 201.22851562 784.13916016 C199.84866155 784.89015729 198.47242764 785.64783843 197.09960938 786.41162109 C156.23429004 809.14039857 111.04602224 822.6749564 65.11474609 830.38623047 C64.40873764 830.50478394 63.70272919 830.6233374 62.97532654 830.7454834 C61.05241641 831.0661241 59.12865052 831.3816206 57.20483398 831.69677734 C54.15413023 832.18337022 54.15413023 832.18337022 51.1875 833.25 C49.80578054 833.39403098 48.41887397 833.491335 47.03125 833.55761719 C45.76643799 833.61867645 45.76643799 833.61867645 44.47607422 833.68096924 C43.09572998 833.73834259 43.09572998 833.73834259 41.6875 833.796875 C40.71699707 833.83850769 39.74649414 833.88014038 38.74658203 833.92303467 C26.56349426 834.40477129 14.3789239 834.49381401 2.1875 834.5 C0.37466522 834.50101212 0.37466522 834.50101212 -1.47479248 834.50204468 C-19.78490254 834.48586192 -37.68008832 833.9833131 -55.8125 831.25 C-57.54983398 831.00056641 -57.54983398 831.00056641 -59.32226562 830.74609375 C-130.78146058 820.2773023 -199.31897916 791.42865257 -255.8125 746.25 C-256.64136719 745.60160156 -257.47023438 744.95320312 -258.32421875 744.28515625 C-269.02231439 735.86105195 -279.37200748 727.07458108 -288.8125 717.25 C-291.20649328 714.80159778 -293.46754555 712.51325471 -296.1875 710.4375 C-299.03012259 708.06864784 -301.2777835 705.51358024 -303.671875 702.703125 C-305.27803104 700.86249363 -306.90265098 699.07237731 -308.578125 697.296875 C-314.98568621 690.50644584 -320.87010533 683.54343028 -326.45263672 676.05566406 C-327.93962504 674.08119986 -329.45346625 672.12947449 -330.97265625 670.1796875 C-379.26913387 608.07609086 -408.13665303 531.52169798 -414.8125 453.25 C-414.9053125 452.22729004 -414.998125 451.20458008 -415.09375 450.15087891 C-415.96485517 439.56539554 -416.05577954 428.99128078 -416.0625 418.375 C-416.06317474 417.40979431 -416.06384949 416.44458862 -416.06454468 415.45013428 C-416.03390063 387.64996626 -413.07604116 360.57082994 -407.8125 333.25 C-407.60818359 332.18217285 -407.40386719 331.1143457 -407.19335938 330.01416016 C-401.36574269 300.46444348 -391.28476832 271.61525304 -378.8125 244.25 C-378.43561035 243.40421387 -378.0587207 242.55842773 -377.67041016 241.68701172 C-363.51780199 209.9468196 -344.29380601 179.74723108 -321.8125 153.25 C-320.95364193 152.2181009 -320.09560767 151.18551573 -319.23828125 150.15234375 C-304.80578211 132.82657385 -289.30310099 115.22282046 -271.48046875 101.3515625 C-267.59893856 98.29407605 -263.89920206 95.03026498 -260.19604492 91.76000977 C-251.09160201 83.84481855 -240.95551867 77.18787872 -230.9375 70.5 C-230.35456177 70.11048157 -229.77162354 69.72096313 -229.17102051 69.31964111 C-219.04584756 62.57285382 -208.72280941 56.2995169 -198.0390625 50.46826172 C-196.03640237 49.37250798 -194.04796444 48.25539947 -192.0625 47.12890625 C-134.43510277 14.86235942 -65.65334709 0.04418478 0 0 Z " fill="#091638" transform="translate(498.8125,82.75)"/>
<path d="M0 0 C2.41906035 2.13621637 4.7688718 4.32484912 7.1015625 6.5546875 C7.82214844 7.21210938 8.54273438 7.86953125 9.28515625 8.546875 C37.04363005 34.77145809 51.95824354 74.29553812 53.28515625 111.9765625 C54.12906989 150.8767618 41.12867638 190.83297157 14.140625 219.39453125 C12.24166924 221.40626025 10.48734569 223.4850543 8.7265625 225.6171875 C4.38276822 230.5772638 -0.68007682 234.55283638 -5.8984375 238.5546875 C-6.68565186 239.16231934 -6.68565186 239.16231934 -7.48876953 239.78222656 C-23.7952877 252.25966403 -42.05883788 261.2258694 -61.9609375 266.3046875 C-63.12846558 266.60294434 -63.12846558 266.60294434 -64.31958008 266.90722656 C-76.68959132 269.88635144 -88.94497946 270.93801899 -101.6484375 270.8671875 C-102.34876099 270.86503235 -103.04908447 270.8628772 -103.77062988 270.86065674 C-114.71525274 270.80676536 -125.25911348 270.28315931 -135.8984375 267.5546875 C-137.07889648 267.25667236 -137.07889648 267.25667236 -138.28320312 266.95263672 C-157.01825242 262.07904147 -173.94319537 254.50596092 -189.8984375 243.5546875 C-190.97222656 242.81992187 -192.04601562 242.08515625 -193.15234375 241.328125 C-224.96376633 218.15635035 -247.42609545 182.4815635 -253.8984375 143.5546875 C-259.80924014 102.34167705 -251.59133792 59.75534854 -226.65625 25.83203125 C-226.07617188 25.08050781 -225.49609375 24.32898438 -224.8984375 23.5546875 C-224.23585938 22.68972656 -223.57328125 21.82476562 -222.890625 20.93359375 C-197.35051128 -11.33482949 -160.07903586 -31.99258882 -119.1953125 -36.9765625 C-75.38015776 -41.36139982 -33.54232335 -28.29851 0 0 Z " fill="#F5BC21" transform="translate(605.8984375,383.4453125)"/>
<path d="M0 0 C0 101.64 0 203.28 0 308 C-14.13429337 308 -14.13429337 308 -20.5 306.875 C-21.2528125 306.74375732 -22.005625 306.61251465 -22.78125 306.47729492 C-44.99693523 302.34154184 -65.40460206 293.76340939 -84 281 C-85.07378906 280.26523437 -86.14757812 279.53046875 -87.25390625 278.7734375 C-119.06532883 255.60166285 -141.52765795 219.926876 -148 181 C-153.91080264 139.78698955 -145.69290042 97.20066104 -120.7578125 63.27734375 C-120.17773438 62.52582031 -119.59765625 61.77429688 -119 61 C-118.33742188 60.13503906 -117.67484375 59.27007812 -116.9921875 58.37890625 C-90.29827652 24.6527284 -52.67856223 5.76376579 -10.41088867 0.18017578 C-6.94972497 -0.07849144 -3.47081589 0 0 0 Z " fill="#FBDA04" transform="translate(500,346)"/>
<path d="M0 0 C2 1 2 1 2.83105469 2.87792969 C3.10852539 3.71743164 3.38599609 4.55693359 3.671875 5.421875 C3.99945801 6.40510742 4.32704102 7.38833984 4.66455078 8.40136719 C5.20184814 10.05894043 5.20184814 10.05894043 5.75 11.75 C6.13269043 12.9143457 6.51538086 14.07869141 6.90966797 15.27832031 C15.6677662 42.05445574 23.87425169 69.02618135 32 96 C7.34998474 92.14050891 -17.23382728 87.91116267 -41.8125 83.625 C-43.00262506 83.41746346 -43.00262506 83.41746346 -44.21679306 83.20573425 C-54.14515452 81.47406369 -64.07286878 79.73870967 -74 78 C-72.6743093 75.05757612 -71.24007627 72.99739114 -68.9465332 70.73535156 C-68.32861404 70.12081116 -67.71069489 69.50627075 -67.0740509 68.87310791 C-66.07253242 67.89177887 -66.07253242 67.89177887 -65.05078125 66.890625 C-64.35993942 66.20498474 -63.6690976 65.51934448 -62.95732117 64.81292725 C-60.74707862 62.62047923 -58.53029008 60.4348109 -56.3125 58.25 C-54.11338697 56.0786688 -51.91580634 53.90584336 -49.72123718 51.72991943 C-48.35721767 50.37797544 -46.99053606 49.02870979 -45.62068176 47.68267822 C-41.81091516 43.91217632 -38.23445205 40.01704545 -34.73344421 35.95953369 C-31.91078722 32.76872349 -28.89116976 29.78747119 -25.859375 26.796875 C-25.21051331 26.15179993 -24.56165161 25.50672485 -23.89312744 24.84210205 C-21.84786589 22.80891748 -19.79936137 20.77905152 -17.75 18.75 C-15.03355385 16.06019811 -12.32047717 13.36706188 -9.609375 10.671875 C-8.99060486 10.0614032 -8.37183472 9.4509314 -7.73431396 8.82196045 C-4.9156285 6.01938906 -2.2594464 3.29071214 0 0 Z " fill="#FADA04" transform="translate(318,506)"/>
<path d="M0 0 C-0.31525635 0.99064453 -0.6305127 1.98128906 -0.95532227 3.00195312 C-10.06519416 31.63844018 -19.05737883 60.31087769 -28 89 C-28.66 89 -29.32 89 -30 89 C-30 90.98 -30 92.96 -30 95 C-33.91209308 93.40584497 -36.37218086 90.86106668 -39.3125 87.875 C-40.21613281 86.96492188 -41.11976563 86.05484375 -42.05078125 85.1171875 C-44.22969289 82.85717769 -46.29761091 80.52177968 -48.34765625 78.14453125 C-52.0855445 73.83760051 -56.06921878 69.81844648 -60.125 65.8125 C-60.81464844 65.12736328 -61.50429688 64.44222656 -62.21484375 63.73632812 C-63.5512284 62.40888677 -64.88859184 61.08242989 -66.22705078 59.75708008 C-68.49220039 57.51220515 -70.74496709 55.25503291 -73 53 C-74.10122971 51.90981999 -75.20281947 50.8200036 -76.3046875 49.73046875 C-87.18063477 38.95127719 -87.18063477 38.95127719 -92.13671875 33.0859375 C-96.5238363 28.1745732 -101.3104299 23.62026611 -106 19 C-105.67 18.34 -105.34 17.68 -105 17 C-101.9588518 16.29809148 -98.9687722 15.72373582 -95.89379883 15.21240234 C-94.4596312 14.96324821 -94.4596312 14.96324821 -92.99649048 14.70906067 C-89.81810564 14.15928127 -86.63768838 13.62240212 -83.45703125 13.0859375 C-81.25312155 12.70828283 -79.0493213 12.32998889 -76.84562683 11.95108032 C-72.2169386 11.15716253 -67.58727343 10.36929844 -62.95678711 9.5859375 C-57.02452841 8.5821089 -51.09443156 7.56614199 -45.16496754 6.54594994 C-40.60943488 5.76306361 -36.05303944 4.98530205 -31.49634361 4.20921707 C-29.31008097 3.83649132 -27.12403483 3.46249332 -24.93821144 3.08720016 C-21.87735504 2.56274107 -18.81545789 2.04485727 -15.75317383 1.52880859 C-14.85059341 1.37298813 -13.948013 1.21716766 -13.01808167 1.05662537 C-8.6235191 0.32324091 -4.47516674 -0.17888212 0 0 Z " fill="#FADA04" transform="translate(350,399)"/>
<path d="M0 0 C3.6229351 1.0189505 5.90925892 2.68968127 8.6328125 5.1796875 C12.85360513 8.93519212 17.2958576 12.26032142 21.875 15.5625 C28.31202853 20.25329661 34.67016911 25.02223348 40.9375 29.9375 C49.03223396 36.28185113 57.23607645 42.47152779 65.4765625 48.625 C66.2284082 49.18832031 66.98025391 49.75164063 67.75488281 50.33203125 C69.2818312 51.46644963 70.81807187 52.58844359 72.36230469 53.69921875 C73.09610352 54.23160156 73.82990234 54.76398437 74.5859375 55.3125 C75.24384277 55.78300781 75.90174805 56.25351562 76.57958984 56.73828125 C77.0483252 57.15464844 77.51706055 57.57101562 78 58 C78 58.66 78 59.32 78 60 C53.97198496 72.11426564 53.97198496 72.11426564 41.94604492 77.70483398 C32.06480816 82.31871808 22.35973408 87.30407289 12.62359619 92.21453857 C9.82690397 93.62454261 7.02904447 95.0322202 4.23095703 96.43945312 C2.8012369 97.1594513 1.37222341 97.88085406 -0.05615234 98.60351562 C-2.15798649 99.6664688 -4.26230051 100.72435793 -6.3671875 101.78125 C-7.006633 102.10613403 -7.64607849 102.43101807 -8.30490112 102.76574707 C-12.77226098 105 -12.77226098 105 -15 105 C-14.3233034 93.99792302 -12.68036514 83.14426976 -11.09375 72.24609375 C-10.80587796 70.25264299 -10.51824364 68.25915788 -10.23083496 66.26564026 C-9.63127139 62.11255014 -9.02921973 57.95983087 -8.42529297 53.80737305 C-7.65088066 48.4816386 -6.88220561 43.15509486 -6.11528778 37.82827663 C-5.52371982 33.72313044 -4.92944271 29.6183801 -4.33430481 25.51375008 C-4.04965643 23.54862682 -3.76578806 21.58339042 -3.48271179 19.61804008 C-3.08819411 16.88224606 -2.69010426 14.14699568 -2.29101562 11.41186523 C-2.17462234 10.59993713 -2.05822906 9.78800903 -1.93830872 8.95147705 C-1.48319581 5.85369466 -0.99242567 2.97727701 0 0 Z " fill="#FBDA04" transform="translate(357,613)"/>
<path d="M0 0 C1.17433594 0.556875 2.34867187 1.11375 3.55859375 1.6875 C4.3283252 2.05230469 5.09805664 2.41710937 5.89111328 2.79296875 C7.60974733 3.60763095 9.32816685 4.42274586 11.04638672 5.23828125 C15.17352073 7.19543197 19.30309217 9.14586773 23.44921875 11.0625 C31.16394487 14.63630589 38.72032788 18.39750653 46.20361328 22.43359375 C52.21417085 25.64724035 58.33816077 28.58882314 64.5 31.5 C74.15462812 36.06155725 83.61947572 40.90052036 93 46 C88.83168221 50.4086383 84.24539966 54.06074269 79.4375 57.75 C78.63030518 58.37342285 77.82311035 58.9968457 76.99145508 59.63916016 C71.81716814 63.62748998 66.61056051 67.57030722 61.37109375 71.47265625 C56.8040332 74.8840059 52.2810759 78.35360803 47.75 81.8125 C40.54751958 87.30972226 33.32671916 92.78045374 26.06152344 98.19458008 C22.65647829 100.73643251 19.3016405 103.3236702 16 106 C15.34 105.67 14.68 105.34 14 105 C13.58781433 103.29629517 13.58781433 103.29629517 13.34838867 101.01025391 C13.2489949 100.13082123 13.14960114 99.25138855 13.04719543 98.3453064 C12.94267563 97.35737091 12.83815582 96.36943542 12.73046875 95.3515625 C11.46168196 84.3528775 9.93304912 73.41052351 8.30078125 62.4609375 C8.05669277 60.81554631 7.81270536 59.17014012 7.56881714 57.52471924 C6.56221975 50.74168776 5.54966353 43.95955031 4.53491211 37.17773438 C3.90535905 32.96848888 3.28002083 28.75863404 2.65718651 24.54838943 C2.42162597 22.96217837 2.18441274 21.37621177 1.94545937 19.79050827 C1.61375726 17.58925695 1.28739295 15.38727338 0.9621582 13.18505859 C0.775793 11.93840424 0.5894278 10.69174988 0.39741516 9.40731812 C0.02708195 6.2321925 -0.07526106 3.19258913 0 0 Z " fill="#FADA04" transform="translate(342,282)"/>
<path d="M0 0 C19.2743112 -0.13191852 38.50959701 0.15532827 57.7734375 0.74462891 C61.46927478 0.857202 65.16535577 0.95663243 68.86163521 1.05343437 C71.744198 1.13099235 74.62645408 1.21718537 77.5086937 1.3058815 C78.87458194 1.34649868 80.24056792 1.38396118 81.60663223 1.41814804 C83.48817202 1.46610113 85.36935811 1.5273818 87.25048828 1.58935547 C88.31631134 1.62044403 89.3821344 1.65153259 90.48025513 1.68356323 C93 2 93 2 95 4 C84.21216957 24.90331312 73.35406096 45.76247283 62.25 66.5 C61.93321289 67.09168976 61.61642578 67.68337952 61.29003906 68.29299927 C57.22629889 75.88013644 53.13346051 83.45061413 49 91 C48.34 91 47.68 91 47 91 C43.03347102 83.65770168 39.11936115 76.30273647 35.4375 68.8125 C31.79379004 61.42972894 27.90606874 54.18403253 24 46.9375 C18.2569271 36.27878034 12.6194499 25.56945818 7.0625 14.8125 C6.70567139 14.12348602 6.34884277 13.43447205 5.98120117 12.72457886 C4.97598813 10.78243854 3.97374007 8.83880258 2.97265625 6.89453125 C2.39781494 5.77925049 1.82297363 4.66396973 1.23071289 3.51489258 C0 1 0 1 0 0 Z " fill="#FBDA03" transform="translate(452,678)"/>
<path d="M0 0 C3.14210081 2.6469819 4.64032149 5.99184771 6.375 9.625 C9.93615162 16.91041594 13.62630983 24.1218257 17.375 31.3125 C17.93678955 32.39080078 18.4985791 33.46910156 19.07739258 34.58007812 C22.39235115 40.93546256 25.72098087 47.28354531 29.0625 53.625 C32.90258602 60.91313178 36.73922464 68.20303183 40.5625 75.5 C41.08787354 76.49854004 41.61324707 77.49708008 42.15454102 78.52587891 C42.64108154 79.45577637 43.12762207 80.38567383 43.62890625 81.34375 C44.2796814 82.58415039 44.2796814 82.58415039 44.94360352 83.84960938 C46 86 46 86 47 89 C15.33725706 90.20461862 -16.32123876 91.32028127 -48 92 C-46.77533671 88.0960748 -45.36908879 84.52756244 -43.4609375 80.91015625 C-42.96674316 79.96817383 -42.47254883 79.02619141 -41.96337891 78.05566406 C-41.17713135 76.57404785 -41.17713135 76.57404785 -40.375 75.0625 C-39.56748291 73.52867676 -39.56748291 73.52867676 -38.74365234 71.96386719 C-37.16735319 68.97327872 -35.5847456 65.98611941 -34 63 C-33.58814453 62.22188965 -33.17628906 61.4437793 -32.75195312 60.64208984 C-27.35569475 50.44942079 -27.35569475 50.44942079 -24.765625 45.76977539 C-21.58823184 40.01129887 -18.53808462 34.19646555 -15.546875 28.33984375 C-15.15716522 27.57711151 -14.76745544 26.81437927 -14.36593628 26.02853394 C-12.74526502 22.85375464 -11.12628802 19.67813156 -9.51171875 16.50024414 C-8.31850686 14.15335735 -7.12055468 11.80894143 -5.921875 9.46484375 C-5.55729187 8.74409164 -5.19270874 8.02333954 -4.81707764 7.28074646 C-3.40459885 4.52475187 -2.20443978 2.20443978 0 0 Z " fill="#FADA04" transform="translate(500,231)"/>
<path d="M0 0 C1.85092877 12.33342059 3.69429316 24.66794548 5.52793217 37.00394917 C6.37954691 42.73163391 7.23379062 48.45890107 8.09399414 54.18530273 C8.92359838 59.70865638 9.74635981 65.23298938 10.56432915 70.75807762 C10.87805672 72.86882266 11.194274 74.97919916 11.51298714 77.08919716 C11.95798841 80.03810979 12.39422479 82.98819306 12.82836914 85.9387207 C12.96287476 86.81625504 13.09738037 87.69378937 13.23596191 88.59791565 C14.11405216 94.65784352 14.11405216 94.65784352 13 98 C11.40494792 97.05598958 9.80989583 96.11197917 8.21484375 95.16796875 C5.86724304 93.89037557 5.86724304 93.89037557 2.77197266 92.63061523 C-0.74549599 91.13239265 -4.15386691 89.46846531 -7.56640625 87.7421875 C-8.97906225 87.03039398 -10.39201187 86.31918304 -11.80517578 85.60839844 C-13.01430634 84.99998108 -13.01430634 84.99998108 -14.24786377 84.37927246 C-18.62507569 82.18557006 -23.01271729 80.01291194 -27.39926147 77.83795166 C-31.91745527 75.59756267 -36.43265064 73.3511576 -40.94746971 71.1039772 C-44.30450603 69.43338339 -47.66266967 67.76513151 -51.02319336 66.1015625 C-54.31860177 64.47009826 -57.61108394 62.83286713 -60.90158272 61.19152451 C-62.14731441 60.57142705 -63.39409925 59.95344061 -64.64195061 59.33761978 C-66.36943759 58.4846958 -68.0929108 57.62365671 -69.81616211 56.76220703 C-70.79604599 56.27559601 -71.77592987 55.78898499 -72.7855072 55.28762817 C-75 54 -75 54 -76 52 C-75.52916992 51.67950684 -75.05833984 51.35901367 -74.57324219 51.02880859 C-61.97954652 42.44992241 -49.47015198 33.75722371 -37 25 C-27.28767817 18.18420601 -17.57304151 11.37164757 -7.8125 4.625 C-7.13477539 4.15425049 -6.45705078 3.68350098 -5.75878906 3.19848633 C-1.11639378 0 -1.11639378 0 0 0 Z " fill="#F5BC21" transform="translate(645,621)"/>
<path d="M0 0 C0.99 0.495 0.99 0.495 2 1 C0.3230531 12.63102992 -1.35460129 24.26195756 -3.03315639 35.89275551 C-3.81257208 41.29352526 -4.59174497 46.6943298 -5.37036133 52.09521484 C-6.1219192 57.3083448 -6.87411701 62.52138205 -7.62675667 67.73435593 C-7.91364346 69.72219944 -8.20030052 71.71007613 -8.48672295 73.6979866 C-8.88824368 76.4844558 -9.29058455 79.27080545 -9.69311523 82.05712891 C-9.81107956 82.87712372 -9.92904388 83.69711853 -10.05058289 84.54196167 C-10.6527074 88.70361769 -11.2896912 92.85505085 -12 97 C-21.45338308 92.54875668 -29.9413627 85.66179048 -38.44482422 79.63085938 C-43.20739022 76.25566329 -47.99553487 72.92203419 -52.8125 69.625 C-59.08791405 65.3277142 -65.33207762 60.98726658 -71.5625 56.625 C-72.39563721 56.04186035 -73.22877441 55.4587207 -74.0871582 54.85791016 C-78.74191323 51.59549068 -83.38002855 48.31149631 -88 45 C-84.94337742 41.69238693 -81.3654307 40.13210845 -77.3125 38.3125 C-69.54091142 34.78545251 -61.91567344 30.98595413 -54.29257202 27.15182495 C-50.23469113 25.11308051 -46.17166561 23.08462684 -42.109375 21.0546875 C-40.3932067 20.19665952 -38.67706104 19.33858625 -36.9609375 18.48046875 C-33.47135417 16.73567708 -29.98177083 14.99088542 -26.4921875 13.24609375 C-25.21027527 12.60489594 -25.21027527 12.60489594 -23.90246582 11.95074463 C-22.22745062 11.11355864 -20.55192569 10.27739161 -18.87585449 9.44232178 C-15.29315028 7.65606935 -11.71688288 5.86154647 -8.16601562 4.01269531 C-7.08513672 3.45420898 -6.00425781 2.89572266 -4.890625 2.3203125 C-3.97829102 1.84094238 -3.06595703 1.36157227 -2.12597656 0.86767578 C-1.07361816 0.43817627 -1.07361816 0.43817627 0 0 Z " fill="#F4BC21" transform="translate(657,282)"/>
<path d="M0 0 C22.59206772 3.74011553 45.17294548 7.54544691 67.75 11.375 C68.76204184 11.54666309 68.76204184 11.54666309 69.79452896 11.72179413 C78.19649566 13.14702037 86.59831609 14.57310764 95 16 C95 20.19282323 92.6785036 21.8889046 89.92578125 24.76171875 C89.39003983 25.33089523 88.8542984 25.90007172 88.30232239 26.48649597 C81.74454417 33.40638426 74.96449112 40.10859493 68.1875 46.8125 C58.10590488 56.70011402 58.10590488 56.70011402 48.62182617 67.15112305 C45.29190288 70.94722557 41.65142334 74.45105609 38.0625 78 C37.28326172 78.77472656 36.50402344 79.54945313 35.70117188 80.34765625 C33.8030758 82.23410757 31.90266851 84.11816245 30 86 C27.47210892 83.47210892 26.95364594 81.33508943 25.83276367 77.93652344 C25.62592453 77.31498383 25.41908539 76.69344421 25.20597839 76.05307007 C24.52102859 73.99031738 23.84457032 71.9248795 23.16796875 69.859375 C22.69013016 68.41584709 22.21171224 66.97251083 21.73274231 65.52935791 C20.4685521 61.71581211 19.21129846 57.90001639 17.95574951 54.08361816 C15.95897213 48.01825022 13.95133278 41.9564677 11.94451332 35.89441681 C11.25087673 33.79611078 10.55989482 31.69694693 9.86943054 29.59759521 C7.36108751 21.98911078 4.75292204 14.42619817 2.00752258 6.89996338 C1.20940848 4.60274273 0.53080078 2.36959574 0 0 Z " fill="#F5BC21" transform="translate(660,400)"/>
<path d="M0 0 C4.35116694 3.48093355 8.12106026 7.15997148 11.83984375 11.3125 C18.54874629 18.71991718 25.64717751 25.72325977 32.75 32.75 C47.27542821 47.12156491 47.27542821 47.12156491 52.47412109 53.25146484 C55.29098166 56.47936171 58.37753666 59.44229779 61.4375 62.4375 C62.68843431 63.6630861 63.93726253 64.89082695 65.18359375 66.12109375 C65.72556396 66.6514624 66.26753418 67.18183105 66.82592773 67.72827148 C68 69 68 69 68 70 C57.55070828 71.79311498 47.10105597 73.58411252 36.65095329 75.37249565 C31.79723779 76.20320502 26.94364385 77.03461091 22.09033203 77.86767578 C17.39624651 78.67338213 12.70183617 79.47717112 8.00720596 80.27969742 C6.2267834 80.58438647 4.44647382 80.88973666 2.66628647 81.19579697 C-7.53805075 82.9496889 -17.73853945 84.60974438 -28 86 C-26.3638271 77.53126305 -23.62274582 69.46750383 -20.87890625 61.30859375 C-20.37293427 59.79374229 -19.86732029 58.27877121 -19.36204529 56.76368713 C-18.3065244 53.60170541 -17.24808348 50.4407228 -16.18725586 47.28051758 C-14.83380019 43.2484451 -13.48556241 39.21465352 -12.13925266 35.18019009 C-10.84602735 31.30569204 -9.55000137 27.43213251 -8.25390625 23.55859375 C-7.88842776 22.46497937 -7.88842776 22.46497937 -7.51556587 21.34927177 C-5.1211576 14.18991336 -2.72506712 7.0417915 0 0 Z " fill="#F5BC21" transform="translate(689,514)"/>
<path d="M0 0 C7.38375 0.12375 14.7675 0.2475 22.375 0.375 C24.7061084 0.40899902 27.0372168 0.44299805 29.43896484 0.47802734 C31.27963739 0.51322155 33.12029627 0.54914148 34.9609375 0.5859375 C35.92233643 0.59729736 36.88373535 0.60865723 37.87426758 0.62036133 C38.78764893 0.64042236 39.70103027 0.6604834 40.64208984 0.68115234 C41.43706879 0.69447601 42.23204773 0.70779968 43.05111694 0.7215271 C45 1 45 1 47 3 C36.21216957 23.90331312 25.35406096 44.76247283 14.25 65.5 C13.93321289 66.09168976 13.61642578 66.68337952 13.29003906 67.29299927 C9.22629889 74.88013644 5.13346051 82.45061413 1 90 C0.67 90 0.34 90 0 90 C0 60.3 0 30.6 0 0 Z " fill="#F5BC21" transform="translate(500,679)"/>
<path d="M0 0 C3.14210081 2.6469819 4.64032149 5.99184771 6.375 9.625 C9.93615162 16.91041594 13.62630983 24.1218257 17.375 31.3125 C18.21768433 32.92995117 18.21768433 32.92995117 19.07739258 34.58007812 C22.39235115 40.93546256 25.72098087 47.28354531 29.0625 53.625 C32.90258602 60.91313178 36.73922464 68.20303183 40.5625 75.5 C41.08787354 76.49854004 41.61324707 77.49708008 42.15454102 78.52587891 C42.64108154 79.45577637 43.12762207 80.38567383 43.62890625 81.34375 C44.06275635 82.17068359 44.49660645 82.99761719 44.94360352 83.84960938 C46 86 46 86 47 89 C31.29093613 89.93387216 15.77415347 90 0 90 C0 61.29 0 32.58 0 3 C-0.66 2.67 -1.32 2.34 -2 2 C-1.34 1.34 -0.68 0.68 0 0 Z " fill="#F4BC21" transform="translate(500,231)"/>
<path d="M0 0 C4.41889613 1.35021826 6.34345343 3.26115668 9 7 C4.375 9.125 4.375 9.125 1 8 C-0.25 5.625 -0.25 5.625 -1 3 C-0.67 2.01 -0.34 1.02 0 0 Z " fill="#F1D506" transform="translate(357,613)"/>
<path d="M0 0 C0 0.66 0 1.32 0 2 C-0.99 2.66 -1.98 3.32 -3 4 C-1.68 5.32 -0.36 6.64 1 8 C0.34 8.66 -0.32 9.32 -1 10 C-3.64 7.36 -6.28 4.72 -9 2 C-8.67 1.34 -8.34 0.68 -8 0 C-2.55072464 -1.27536232 -2.55072464 -1.27536232 0 0 Z " fill="#F0D207" transform="translate(253,416)"/>
<path d="M0 0 C0.75 1.6875 0.75 1.6875 1 4 C-0.5625 6.6875 -0.5625 6.6875 -3 9 C-6.25 9.8125 -6.25 9.8125 -9 10 C-8.06409496 8.8944811 -7.12620142 7.79064547 -6.1875 6.6875 C-5.66542969 6.07261719 -5.14335937 5.45773437 -4.60546875 4.82421875 C-3.12827531 3.14575321 -1.59960869 1.56117966 0 0 Z " fill="#F0D306" transform="translate(278,548)"/>
<path d="M0 0 C0.33 0 0.66 0 1 0 C1.125 2.875 1.125 2.875 1 6 C-1 8 -1 8 -4.125 8.125 C-5.548125 8.063125 -5.548125 8.063125 -7 8 C-6.02133662 6.85373678 -5.04205413 5.70800212 -4.0625 4.5625 C-3.51722656 3.92441406 -2.97195313 3.28632812 -2.41015625 2.62890625 C-1.63204305 1.73008851 -0.84063472 0.84063472 0 0 Z " fill="#F0D305" transform="translate(268,558)"/>
<path d="M0 0 C2.125 0.375 2.125 0.375 4 1 C3.01 1 2.02 1 1 1 C1 1.66 1 2.32 1 3 C3.475 3.99 3.475 3.99 6 5 C6 5.66 6 6.32 6 7 C6.66 7 7.32 7 8 7 C8.33 7.99 8.66 8.98 9 10 C6 10 6 10 3.95703125 8.25 C3.24933594 7.5075 2.54164063 6.765 1.8125 6 C1.09707031 5.2575 0.38164062 4.515 -0.35546875 3.75 C-0.89816406 3.1725 -1.44085938 2.595 -2 2 C-1.34 1.34 -0.68 0.68 0 0 Z " fill="#EED009" transform="translate(255,425)"/>
<path d="M0 0 C0.66 0.33 1.32 0.66 2 1 C0.7260411 3.03833424 -0.61061923 5.03852126 -2 7 C-2.66 7 -3.32 7 -4 7 C-4.66 9.31 -5.32 11.62 -6 14 C-7.32 13.34 -8.64 12.68 -10 12 C-6.7 8.04 -3.4 4.08 0 0 Z " fill="#E4CB0D" transform="translate(389,397)"/>
<path d="M0 0 C0.99 0.33 1.98 0.66 3 1 C2.67 2.32 2.34 3.64 2 5 C4.475 5.99 4.475 5.99 7 7 C6.01 8.485 6.01 8.485 5 10 C2.36 7.36 -0.28 4.72 -3 2 C-2.01 1.34 -1.02 0.68 0 0 Z " fill="#EAD109" transform="translate(266,436)"/>
<path d="M0 0 C0.33 0.66 0.66 1.32 1 2 C-1.10515339 5.72450216 -2.24267224 7.6795921 -6.25 9.375 C-7.61125 9.684375 -7.61125 9.684375 -9 10 C-8.06409496 8.8944811 -7.12620142 7.79064547 -6.1875 6.6875 C-5.66542969 6.07261719 -5.14335937 5.45773437 -4.60546875 4.82421875 C-3.12827531 3.14575321 -1.59960869 1.56117966 0 0 Z " fill="#EDD107" transform="translate(302,523)"/>
<path d="M0 0 C1.11375 0.598125 2.2275 1.19625 3.375 1.8125 C4.00148438 2.14894531 4.62796875 2.48539063 5.2734375 2.83203125 C7 4 7 4 9 7 C8.01 7.495 8.01 7.495 7 8 C6.67 7.34 6.34 6.68 6 6 C2.97065509 5.34227572 2.97065509 5.34227572 0 5 C0 3.35 0 1.7 0 0 Z " fill="#F0D208" transform="translate(369,622)"/>
<path d="M0 0 C2 3 2 3 2 5 C0.35 5 -1.3 5 -3 5 C-2.67 5.99 -2.34 6.98 -2 8 C-3.32 8 -4.64 8 -6 8 C-4.55746343 4.63408134 -2.66735273 2.48952921 0 0 Z " fill="#EDD207" transform="translate(250,576)"/>
<path d="M0 0 C0 3.93235469 -1.54945341 5.02964049 -4 8 C-4.33 8.99 -4.66 9.98 -5 11 C-6.32 10.34 -7.64 9.68 -9 9 C-6.03 6.03 -3.06 3.06 0 0 Z " fill="#EBCD09" transform="translate(260,566)"/>
<path d="M0 0 C0 3.21534057 -0.26476072 4.35582586 -2 7 C-4.5 8.8125 -4.5 8.8125 -7 10 C-7.66 9.67 -8.32 9.34 -9 9 C-6.03 6.03 -3.06 3.06 0 0 Z " fill="#E7CE08" transform="translate(292,533)"/>
<path d="M0 0 C1.125 1.6875 1.125 1.6875 2 4 C1.125 6.75 1.125 6.75 0 9 C-0.66 8.67 -1.32 8.34 -2 8 C-1.67 7.34 -1.34 6.68 -1 6 C-1.66 5.67 -2.32 5.34 -3 5 C-2.01 3.35 -1.02 1.7 0 0 Z " fill="#F0D406" transform="translate(468,291)"/>
<path d="M0 0 C4.455 1.98 4.455 1.98 9 4 C9 4.33 9 4.66 9 5 C3.5 5.36666667 3.5 5.36666667 1.125 3.625 C0 2 0 2 0 0 Z " fill="#EFD306" transform="translate(342,282)"/>
<path d="M0 0 C1.32 0.33 2.64 0.66 4 1 C2.35 2.65 0.7 4.3 -1 6 C-1.33 5.01 -1.66 4.02 -2 3 C-1.34 2.01 -0.68 1.02 0 0 Z " fill="#ECCF08" transform="translate(364,378)"/>
<path d="M0 0 C1.65 0.33 3.3 0.66 5 1 C3.35 2.65 1.7 4.3 0 6 C-0.66 5.34 -1.32 4.68 -2 4 C-1.34 2.68 -0.68 1.36 0 0 Z " fill="#ECD206" transform="translate(374,370)"/>
<path d="M0 0 C2.72426311 2.35277269 3.8141763 4.62496331 5 8 C1.31197956 6.77065985 0.27643027 5.06140622 -2 2 C-1.34 1.34 -0.68 0.68 0 0 Z " fill="#E5B81E" transform="translate(500,231)"/>
<path d="M0 0 C-0.33 0.99 -0.66 1.98 -1 3 C-1.66 3 -2.32 3 -3 3 C-3 3.66 -3 4.32 -3 5 C-4.98 5.99 -4.98 5.99 -7 7 C-7.33 6.34 -7.66 5.68 -8 5 C-2.25 0 -2.25 0 0 0 Z " fill="#EED508" transform="translate(410,379)"/>
<path d="M0 0 C1.65 0 3.3 0 5 0 C5.66 1.65 6.32 3.3 7 5 C3.535 3.02 3.535 3.02 0 1 C0 0.67 0 0.34 0 0 Z " fill="#E8B51D" transform="translate(599,347)"/>
<path d="M0 0 C2.31 0.66 4.62 1.32 7 2 C7.33 3.32 7.66 4.64 8 6 C6.66402348 5.19185349 5.331275 4.37836819 4 3.5625 C3.2575 3.11003906 2.515 2.65757812 1.75 2.19140625 C1.1725 1.79824219 0.595 1.40507812 0 1 C0 0.67 0 0.34 0 0 Z " fill="#E5B41D" transform="translate(586,338)"/>
</svg>
